# xmcd
#
# Track frame offsets: 
#        150
#        12321
#        24683
#        38091
#        47671
#        58331
#        68305
#        85175
#        98939
#        112400
#
# Disc length: 1705 seconds
#
# Revision: 0
# Processed by: cddbd v1.5.2PL0 Copyright (c) Steve Scherf et al.
# Submitted via: ExactAudioCopy v1.3
#
DISCID=8206a70a
DTITLE=Moonshine Wagon - Folk You!
DYEAR=2015
DGENRE=Bluegrass
TTITLE0=Folk You!
TTITLE1=Moonshine In Your Life
TTITLE2=Let's Go Down To Hell
TTITLE3=Lonely Glass Of Whiskey
TTITLE4=Popcorn Sutton
TTITLE5=Gipsycho
TTITLE6=Billy Wild
TTITLE7=Still Drunk
TTITLE8=Rascals And A Rooster
TTITLE9=The Boy Who Wouldn't Hoe Corn
EXTD=
EXTT0=
EXTT1=
EXTT2=
EXTT3=
EXTT4=
EXTT5=
EXTT6=
EXTT7=
EXTT8=
EXTT9=
PLAYORDER=
